<?xml version="1.0" encoding="utf-8"?>
<!-- Generator: Adobe Illustrator 16.0.0, SVG Export Plug-In . SVG Version: 6.00 Build 0)  -->
<!DOCTYPE svg PUBLIC "-//W3C//DTD SVG 1.1//EN" "http://www.w3.org/Graphics/SVG/1.1/DTD/svg11.dtd">
<svg version="1.1" id="Layer_1" xmlns="http://www.w3.org/2000/svg" xmlns:xlink="http://www.w3.org/1999/xlink" x="0px" y="0px"
	 width="50px" height="50px" viewBox="0 0 50 50" enable-background="new 0 0 50 50" xml:space="preserve">
<g>
	
		<path fill-rule="evenodd" clip-rule="evenodd" fill="none" stroke="#C09547" stroke-width="1.5" stroke-linecap="round" stroke-linejoin="round" stroke-miterlimit="10" d="
		M44.507,21.011c-0.801,0.264-1.61,0.495-2.42,0.729c-1.888,0.547-3.771,1.108-5.663,1.643c-1.162,0.328-2.317,0.678-3.478,1.013
		c-1.366,0.395-2.717,0.842-4.104,1.166"/>
	
		<path fill-rule="evenodd" clip-rule="evenodd" fill="none" stroke="#C09547" stroke-width="1.5" stroke-linecap="round" stroke-linejoin="round" stroke-miterlimit="10" d="
		M23.218,27.32c-0.694,0.051-1.332,0.327-1.991,0.513c-1.801,0.507-3.596,1.035-5.392,1.558c-2.227,0.649-4.449,1.315-6.682,1.947
		c-1.17,0.332-1.04,0.427-1.399-0.738c-0.18-0.581-0.158-0.638,0.462-0.826c1.337-0.405,2.679-0.792,4.024-1.167
		c0.89-0.248,1.8-0.451,2.646-0.805c0.493-0.207,1.003-0.278,1.497-0.438c0.259-0.083,0.538-0.103,0.742-0.316
		c0.025-0.026,0.076-0.038,0.115-0.04c1.066-0.042,2.025-0.517,3.045-0.754c0.793-0.184,1.563-0.467,2.348-0.687
		c0.19-0.053,0.401-0.032,0.604-0.045"/>
	
		<path fill-rule="evenodd" clip-rule="evenodd" fill="none" stroke="#C09547" stroke-width="1.5" stroke-linecap="round" stroke-linejoin="round" stroke-miterlimit="10" d="
		M36.03,21.5c-0.423-1.011-0.636-2.088-0.969-3.127c-0.175-0.545-0.615-0.869-1.141-0.74c-0.452,0.111-0.727,0.598-0.58,1.131
		c0.267,0.969,0.568,1.928,0.852,2.893c0.038,0.127,0.054,0.26,0.08,0.39"/>
	
		<path fill-rule="evenodd" clip-rule="evenodd" fill="none" stroke="#C09547" stroke-width="1.5" stroke-linecap="round" stroke-linejoin="round" stroke-miterlimit="10" d="
		M17.202,26.968c-0.3-1.029-0.61-2.054-0.894-3.087c-0.157-0.571-0.648-0.919-1.177-0.78c-0.463,0.122-0.698,0.607-0.545,1.171
		c0.292,1.07,0.597,2.136,0.896,3.204"/>
	
		<path fill-rule="evenodd" clip-rule="evenodd" fill="none" stroke="#C09547" stroke-width="1.5" stroke-linecap="round" stroke-linejoin="round" stroke-miterlimit="10" d="
		M15.444,32.593c1.003,0.013,2.005,0.031,3.008,0.038c1.016,0.006,2.034,0.047,3.046-0.011c1.006-0.058,2.005,0.055,3.009,0.021
		c1.015-0.035,2.032-0.035,3.047,0c1.004,0.035,2.003-0.078,3.009-0.021c1.012,0.058,2.03,0.018,3.046,0.011
		c1.003-0.006,2.005-0.024,3.008-0.038"/>
	
		<path fill-rule="evenodd" clip-rule="evenodd" fill="none" stroke="#C09547" stroke-width="1.5" stroke-linecap="round" stroke-linejoin="round" stroke-miterlimit="10" d="
		M43.921,19.468c-0.264-0.127-0.521,0.021-0.737,0.093c-1.963,0.654-3.979,1.127-5.947,1.767c-0.353,0.115-0.729,0.27-1.128,0.212
		c-0.052-0.007-0.102-0.004-0.158,0.034c-0.473,0.312-0.997,0.457-1.561,0.474c-0.053,0.001-0.104,0.034-0.156,0.035
		c-0.046,0.001-0.052,0.003-0.02,0.042c-1.052,0.452-2.182,0.655-3.261,1.019c-0.847,0.286-1.757,0.382-2.54,0.856"/>
	
		<path fill-rule="evenodd" clip-rule="evenodd" fill="none" stroke="#C09547" stroke-width="1.5" stroke-linecap="round" stroke-linejoin="round" stroke-miterlimit="10" d="
		M28.647,30.679c0.013-0.143,0.037-0.287,0.037-0.43c0.003-1.328-0.052-2.659,0.023-3.983c0.042-0.743-0.098-1.421-0.294-2.111
		c-0.015-0.051,0.012-0.104-0.038-0.158c-1.506-1.618-3.538-1.559-4.65,0.158c-0.262,0.405-0.408,0.89-0.432,1.33
		c-0.021,0.396,0.137,0.839,0.065,1.246c-0.106,0.608,0.054,1.199,0.021,1.8c-0.031,0.597-0.009,1.197-0.005,1.796
		c0.001,0.117,0.024,0.234,0.037,0.352"/>
	
		<path fill-rule="evenodd" clip-rule="evenodd" fill="none" stroke="#C09547" stroke-width="1.5" stroke-linecap="round" stroke-linejoin="round" stroke-miterlimit="10" d="
		M22.046,32.496c0-1.019,0.261-1.385,1.211-1.7c0.066-0.022,0.135-0.083,0.194-0.073c1.584,0.257,3.179,0.085,4.767,0.084
		c0.433,0,0.819,0,1.168,0.229c0.519,0.34,0.697,0.853,0.629,1.459"/>
	
		<path fill-rule="evenodd" clip-rule="evenodd" fill="none" stroke="#C09547" stroke-width="1.5" stroke-linecap="round" stroke-linejoin="round" stroke-miterlimit="10" d="
		M43.979,19.078c-0.084,0.448,0.222,0.8,0.306,1.208c0.046,0.222,0.105,0.438,0.104,0.667"/>
	
		<path fill-rule="evenodd" clip-rule="evenodd" fill="none" stroke="#C09547" stroke-width="1.5" stroke-linecap="round" stroke-linejoin="round" stroke-miterlimit="10" d="
		M25.796,24.625c-0.427,0.167-0.651,0.459-0.629,0.938c0.023,0.489,0.447,0.843,0.863,0.821c0.499-0.026,0.898-0.423,0.898-0.899
		c0-0.471-0.379-0.85-0.859-0.859c-0.078-0.001-0.156,0-0.234,0"/>
</g>
</svg>
