<?xml version="1.0" encoding="utf-8"?>
<!-- Generator: Adobe Illustrator 16.0.0, SVG Export Plug-In . SVG Version: 6.00 Build 0)  -->
<!DOCTYPE svg PUBLIC "-//W3C//DTD SVG 1.1//EN" "http://www.w3.org/Graphics/SVG/1.1/DTD/svg11.dtd">
<svg version="1.1" id="Layer_1" xmlns="http://www.w3.org/2000/svg" xmlns:xlink="http://www.w3.org/1999/xlink" x="0px" y="0px"
	 width="50px" height="50px" viewBox="0 0 50 50" enable-background="new 0 0 50 50" xml:space="preserve">
<g>
	
		<path fill-rule="evenodd" clip-rule="evenodd" fill="none" stroke="#C09547" stroke-width="1.5" stroke-linecap="round" stroke-linejoin="round" stroke-miterlimit="10" d="
		M24.438,17.535c-0.838-0.881-1.272-2.055-2.326-2.809c-1.917-1.371-3.935-1.648-6.012-0.682c-2.23,1.039-3.544,2.79-3.54,5.395
		c0.004,2.539-0.086,5.078-0.135,7.617"/>
	
		<path fill-rule="evenodd" clip-rule="evenodd" fill="none" stroke="#C09547" stroke-width="1.5" stroke-linecap="round" stroke-linejoin="round" stroke-miterlimit="10" d="
		M36.597,24.054c0-1.44,0-2.881,0-4.321c0-3.31-2.43-6.021-5.715-6.285c-1.392-0.112-2.755,0.349-3.774,1.197
		c-1.534,1.276-2.778,2.666-2.602,5.094c0.263,3.616,0.128,7.27-0.042,10.909c-0.065,1.384,0.169,2.782,0.267,4.174"/>
	
		<path fill-rule="evenodd" clip-rule="evenodd" fill="none" stroke="#C09547" stroke-width="1.5" stroke-linecap="round" stroke-linejoin="round" stroke-miterlimit="10" d="
		M22.093,23.98c-0.297-1.407-0.116-2.832-0.138-4.248c-0.032-2.054-1.215-3.486-2.936-3.681c-1.979-0.224-3.915,1.143-4.062,3.39
		c-0.178,2.724-0.024,5.467-0.048,8.201c-0.021,2.394,0.171,4.791-0.141,7.179"/>
	
		<path fill-rule="evenodd" clip-rule="evenodd" fill="none" stroke="#C09547" stroke-width="1.5" stroke-linecap="round" stroke-linejoin="round" stroke-miterlimit="10" d="
		M34.105,20.318c0.091-2.359-1.193-4.094-3.075-4.258c-2.319-0.201-3.916,1.134-4.053,4.113c-0.195,4.239-0.041,8.494-0.063,12.743
		c-0.002,0.448,0.114,0.765,0.453,1.025c1.926,1.487,3.292,2.078,5.857,0.581c0.397-0.232,0.758-0.526,1.122-0.782
		c0.848,0.32,1.281,1.109,2.097,1.391c1.585,0.547,2.956,0.17,4.254-0.752c0.432-0.306,0.638-0.947,1.319-0.877"/>
	
		<path fill-rule="evenodd" clip-rule="evenodd" fill="none" stroke="#C09547" stroke-width="1.5" stroke-linecap="round" stroke-linejoin="round" stroke-miterlimit="10" d="
		M24.145,30.719c-2.979,0-5.958,0-8.937,0"/>
	
		<path fill-rule="evenodd" clip-rule="evenodd" fill="none" stroke="#C09547" stroke-width="1.5" stroke-linecap="round" stroke-linejoin="round" stroke-miterlimit="10" d="
		M24.145,28.082c-2.979,0-5.958,0-8.937,0"/>
	
		<path fill-rule="evenodd" clip-rule="evenodd" fill="none" stroke="#C09547" stroke-width="1.5" stroke-linecap="round" stroke-linejoin="round" stroke-miterlimit="10" d="
		M12.132,24.273c-2.441,0-4.883,0-7.325,0"/>
	
		<path fill-rule="evenodd" clip-rule="evenodd" fill="none" stroke="#C09547" stroke-width="1.5" stroke-linecap="round" stroke-linejoin="round" stroke-miterlimit="10" d="
		M8.909,40.241c2.167,2.427,4.637,2.395,7.145,0.193c1.259,0.864,2.521,1.964,4.281,1.564"/>
	
		<path fill-rule="evenodd" clip-rule="evenodd" fill="none" stroke="#C09547" stroke-width="1.5" stroke-linecap="round" stroke-linejoin="round" stroke-miterlimit="10" d="
		M5.393,33.649c1.841,1.807,3.717,2.739,7.032,0.146"/>
	
		<path fill-rule="evenodd" clip-rule="evenodd" fill="none" stroke="#C09547" stroke-width="1.5" stroke-linecap="round" stroke-linejoin="round" stroke-miterlimit="10" d="
		M21.947,41.56c0.391-0.342,0.776-0.689,1.178-1.019c0.058-0.048,0.189-0.007,0.49-0.007c2.239,2.153,4.681,2.153,7.003-0.08
		c2.728,1.834,4.328,2.61,7.151-0.066"/>
	
		<path fill-rule="evenodd" clip-rule="evenodd" fill="none" stroke="#C09547" stroke-width="1.5" stroke-linecap="round" stroke-linejoin="round" stroke-miterlimit="10" d="
		M24.145,24.273c-2.979,0-5.958,0-8.937,0"/>
	
		<path fill-rule="evenodd" clip-rule="evenodd" fill="none" stroke="#C09547" stroke-width="1.5" stroke-linecap="round" stroke-linejoin="round" stroke-miterlimit="10" d="
		M27.367,24.127c1.505,0.311,3.028,0.118,4.541,0.137c2.832,0.035,5.665,0.018,8.497,0.003c0.537-0.003,1.074-0.091,1.611-0.14"/>
	
		<path fill-rule="evenodd" clip-rule="evenodd" fill="none" stroke="#C09547" stroke-width="1.5" stroke-linecap="round" stroke-linejoin="round" stroke-miterlimit="10" d="
		M27.074,33.796c-0.586,0.342-1.163,0.699-1.759,1.022c-2.125,1.15-3.878,0.232-5.431-1.037c-0.735,0.065-0.993,0.626-1.441,0.911
		c-1.629,1.036-4.558,0.607-5.727-0.896c-0.25-0.322-0.114-0.684-0.14-1.027c-0.092-1.219,0.168-2.452-0.151-3.662"/>
</g>
</svg>
