<svg version="1.2" xmlns="http://www.w3.org/2000/svg" viewBox="0 0 582 201" width="582" height="201"><defs><clipPath clipPathUnits="userSpaceOnUse" id="cp1"><path d="m-91-64h763.87v329.47h-763.87z"/></clipPath></defs><style>.a{fill:#232020}</style><path class="a" d="m166.6 99.4l-78.9 24.6-78.9-24.7-6.4 8.1 73 23 12.3 3.9 12.4-3.9 73-23zm-4.6-5.7l-6.6-8.2-67.7 21.1-67.7-21.1-6.6 8.2 74.3 23.2zm-11.4-14.3l-6.6-8.2-56.3 17.6-56.3-17.6-6.6 8.2 62.9 19.7zm-22.6-28.3l-6.6-8.2-33.7 10.5-33.7-10.5-6.5 8.2 40.2 12.6zm-11.1-14l-6.6-8.2-22.5 7-22.6-7-6.5 8.2 29.1 9.1zm-11.4-14.3l-6.6-8.2-11.1 3.5-11.1-3.5-6.6 8.2 17.7 5.6zm-11.2-14l-6.5-8.1-6.5 8.1 6.5 2zm-6.5 72.7l51.7-16.1-6.6-8.2-45.1 14.1-45.2-14.1-6.5 8.2z"/><g clip-path="url(#cp1)"><path fill-rule="evenodd" class="a" d="m270.8 97.7q0 6.7-4 11.5c-2.7 3.1-5.9 4.7-9.7 4.7h-6.9q-5.7 0-9.7-4.7-4-4.8-4-11.5v-63.1q0-6.6 4-11.4 4-4.8 9.7-4.8h6.9c3.8 0 7 1.6 9.7 4.8q4 4.8 4 11.4v12.6q0 1.8-1.1 3.2-1.2 1.3-2.7 1.3c-1.1 0-2-0.5-2.7-1.3q-1.1-1.4-1.1-3.2v-12.6q0-3-1.8-5.1-1.8-2.2-4.3-2.2h-6.9q-2.6 0-4.4 2.2c-1.2 1.4-1.7 3.1-1.7 5.1v63.1c0 2 0.5 3.7 1.7 5.2q1.8 2.1 4.4 2.1h6.9q2.5 0 4.3-2.1 1.8-2.2 1.8-5.2v-12.5q0-1.9 1.1-3.2c0.7-0.9 1.6-1.3 2.7-1.3q1.5-0.1 2.7 1.3 1.1 1.3 1.1 3.2zm49.9 11.8q0 1.9-1.1 3.1-1.1 1.3-2.6 1.3-1.6 0-2.8-1.3c-0.7-0.8-1.1-1.9-1.1-3.1v-37.9q0-0.9-0.6-0.9h-17.9q-0.6 0-0.6 0.9v37.9q0 1.9-1.1 3.1-1.1 1.3-2.7 1.3-1.5 0-2.7-1.3-1.1-1.2-1.1-3.1v-86.8q0-1.8 1.1-3.1 1.1-1.3 2.7-1.2 1.6-0.1 2.7 1.2 1.1 1.3 1.1 3.1v38.2q0 0.9 0.6 0.9h17.9q0.6 0 0.6-0.9v-38.2c0-1.2 0.4-2.2 1.1-3.1q1.2-1.3 2.8-1.2 1.5-0.1 2.6 1.2c0.8 0.9 1.1 1.9 1.1 3.1zm53.7-0.9q0.3 1.9-0.5 3.4-0.9 1.5-2.3 1.9-1.6 0.4-2.9-0.6c-0.8-0.7-1.3-1.6-1.5-2.8l-2.9-15.8c-0.1-0.6-0.4-0.9-0.8-0.9h-16.1c-0.5 0-0.8 0.3-0.9 0.9l-2.8 15.8c-0.3 1.2-0.8 2.1-1.7 2.8q-1.3 1-2.8 0.6-1.4-0.4-2.3-1.9-0.8-1.6-0.5-3.4l15.7-86.7q0.6-3.5 3.7-3.5 3 0 3.6 3.5zm-11.8-24.6l-6.3-36.8q-0.2-0.5-0.5-0.5-0.4 0-0.4 0.5l-6.8 36.8q-0.1 0.9 0.5 0.9h13q0.7 0 0.5-0.9zm61.8 25.5q0 3.7-3.2 4.4-3 0.6-4.1-2.9l-18.5-60q-0.2-0.5-0.6-0.4c-0.2 0.1-0.3 0.3-0.3 0.6v58.3q0 1.8-1.1 3.1-1.1 1.3-2.7 1.3-1.6 0-2.7-1.3-1.1-1.3-1.1-3.1v-86.8c0-2.5 1.1-4 3.2-4.4q3-0.6 4.1 2.9l18.5 60q0.2 0.5 0.6 0.4 0.3-0.1 0.3-0.6v-58.3c0-1.2 0.4-2.3 1.1-3.1q1.2-1.3 2.7-1.3 1.6 0 2.7 1.3c0.7 0.8 1.1 1.9 1.1 3.1zm50-11.8q0 6.6-4 11.4-4 4.8-9.7 4.8h-16.9q-1.5 0-2.6-1.3-1.1-1.2-1.1-3.1v-86.8c0-1.2 0.3-2.3 1.1-3.1q1.1-1.3 2.6-1.3h16.9q5.7 0 9.7 4.8 4 4.8 4 11.4zm-7.6 0v-63.1q0-3-1.8-5.1-1.8-2.2-4.3-2.2h-12.4q-0.7 0-0.6 0.9v75.9c0 0.6 0.1 0.9 0.6 0.9h12.4q2.5 0 4.3-2.1 1.8-2.2 1.8-5.2zm61.2 10.9c0.2 1.3 0.1 2.4-0.5 3.4q-0.8 1.6-2.3 1.9c-1 0.3-2 0.1-2.8-0.6q-1.3-1-1.6-2.8l-2.8-15.8q-0.2-0.8-0.9-0.8h-16.1q-0.7 0-0.8 0.8l-2.9 15.9c-0.2 1.1-0.8 2-1.6 2.7q-1.3 1-2.8 0.6-1.5-0.3-2.3-1.9-0.2-0.4-0.4-0.8-0.1-0.4-0.2-0.8-0.1-0.5-0.1-0.9 0-0.4 0.1-0.9l15.7-86.7q0.6-3.5 3.7-3.5 3 0 3.7 3.5zm-11.9-24.6l-6.3-36.7q-0.1-0.6-0.5-0.6-0.4 0-0.4 0.6l-6.8 36.7q-0.1 0.9 0.6 0.9h12.9c0.5 0 0.7-0.3 0.5-0.9zm61.8 25.5q0 1.9-1.1 3.1-1.1 1.3-2.7 1.3-2.4 0-3.4-2.6l-14.5-40q-0.4-0.7-1-0.7h-3.4q-0.6 0-0.6 0.9v38q0 1.9-1.1 3.1-1.1 1.3-2.7 1.3-1.5 0-2.7-1.3-1.1-1.2-1.1-3.1v-86.8q0-1.8 1.1-3.1 1.2-1.2 2.7-1.2 1.6 0 2.7 1.2 1.1 1.3 1.1 3.1v38.1q0 0.9 0.6 0.9h3.4q0.6 0 1-0.8l14.5-39.9q1-2.6 3.4-2.6 1.6 0 2.7 1.2 1.1 1.3 1.1 3.1 0.1 1-0.3 1.8l-14.9 40.8q-0.1 0.4-0.1 0.8 0 0.1 0 0.2 0 0.1 0 0.2 0 0.1 0 0.2 0 0.1 0.1 0.2l14.9 40.8c0.3 0.6 0.3 1.1 0.3 1.8zm-577.2 46.8h577.2v1.9h-577.2z"/><path fill-rule="evenodd" class="a" d="m14.3 184.8q1.8 1.6 1.8 4.4 0 3-1.8 4.6-1.8 1.6-5.1 1.6h-3.8v5.1h-3.4v-17.2h7.2q3.2 0 5.1 1.5zm-2.4 6.9q1-0.8 1-2.4 0-1.6-1-2.3-1-0.8-2.9-0.8h-3.6v6.3h3.6q1.9 0 2.9-0.8zm23.3 8.8l-3-5.1q-0.1 0-0.2 0 0 0-0.1 0-0.1 0-0.2 0-0.1 0-0.1 0h-4v5.1h-3.3v-17.2h7.3q3.4 0 5.2 1.5 1.8 1.6 1.8 4.4 0 2-0.8 3.5-0.9 1.4-2.6 2.1l3.8 5.7zm-7.6-8h4q1.9 0 2.9-0.8 1-0.8 1-2.4 0-1.6-1-2.3-1-0.8-2.9-0.8h-4zm32.8-8.3q2.1 1.1 3.4 3.1 0.3 0.5 0.5 1.1 0.2 0.5 0.4 1.1 0.1 0.6 0.2 1.1 0.1 0.6 0.1 1.2 0 2.5-1.2 4.5-1.3 2-3.4 3.2-2.1 1.2-4.7 1.2-2.6 0-4.7-1.2-2.1-1.2-3.4-3.2-1.2-2-1.2-4.5 0-2.5 1.2-4.5 1.3-2 3.4-3.1 2.1-1.2 4.7-1.2 2.6 0 4.7 1.2zm-7.6 2.5q-0.3 0.2-0.6 0.4-0.4 0.3-0.6 0.5-0.3 0.3-0.5 0.6-0.3 0.3-0.5 0.6-0.2 0.4-0.3 0.7-0.2 0.4-0.3 0.8-0.1 0.3-0.1 0.7-0.1 0.4-0.1 0.8 0 0.4 0.1 0.8 0 0.4 0.1 0.8 0.1 0.3 0.3 0.7 0.1 0.4 0.3 0.7 0.2 0.3 0.5 0.6 0.2 0.3 0.5 0.6 0.3 0.3 0.6 0.5 0.3 0.2 0.6 0.4 0.3 0.2 0.7 0.4 0.4 0.1 0.7 0.2 0.4 0.1 0.8 0.2 0.4 0 0.8 0 0.3 0 0.7 0 0.4-0.1 0.8-0.2 0.3-0.1 0.7-0.2 0.3-0.2 0.7-0.4 0.3-0.2 0.6-0.4 0.3-0.2 0.6-0.5 0.2-0.3 0.5-0.6 0.2-0.3 0.4-0.6 0.2-0.4 0.3-0.7 0.2-0.4 0.3-0.8 0.1-0.3 0.1-0.7 0.1-0.4 0.1-0.8 0-0.4-0.1-0.8 0-0.4-0.1-0.7-0.1-0.4-0.3-0.8-0.1-0.3-0.3-0.7-0.2-0.3-0.4-0.6-0.3-0.3-0.5-0.6-0.3-0.2-0.6-0.5-0.3-0.2-0.6-0.4-0.4-0.2-0.7-0.3-0.4-0.2-0.7-0.3-0.4-0.1-0.8-0.1-0.4 0-0.7 0-1.6 0-3 0.7z"/><path class="a" d="m73.4 183.3h3.8l5.8 11.1 5.7-11.1h3.8v17.2h-3.1v-12.3l-5.4 10.5h-2.1l-5.5-10.5v12.3h-3z"/><path class="a" d="m102.3 183.3h3.3v17.2h-3.3zm21.3 3.2q-1.4-0.5-2.5-0.5-1.2 0-1.9 0.5-0.7 0.4-0.7 1.2 0 0.7 0.5 1.2 0.1 0.1 0.3 0.2 0.1 0.2 0.3 0.3 0.1 0.1 0.3 0.1 0.1 0.1 0.3 0.2 0.7 0.3 2 0.7 1.8 0.5 2.9 1 0.3 0.1 0.6 0.3 0.2 0.2 0.5 0.4 0.2 0.1 0.4 0.4 0.3 0.2 0.4 0.4 0.8 1 0.8 2.7 0 1.6-0.8 2.7-0.9 1.2-2.4 1.8-1.5 0.6-3.4 0.6-2.1 0-4-0.7-1.9-0.8-3.4-2l1.4-2.8q0.3 0.3 0.7 0.5 0.3 0.3 0.7 0.5 0.4 0.3 0.8 0.5 0.4 0.2 0.8 0.4 1.6 0.7 3 0.7 1.4 0 2.2-0.6 0.2-0.1 0.3-0.2 0.2-0.2 0.3-0.4 0.1-0.2 0.2-0.4 0-0.2 0-0.4 0-0.2 0-0.4 0-0.1-0.1-0.3-0.1-0.1-0.2-0.3-0.1-0.1-0.2-0.2-0.5-0.5-1.2-0.8-0.8-0.3-2-0.7-1.8-0.5-2.9-1-0.3-0.1-0.6-0.3-0.2-0.1-0.5-0.3-0.2-0.2-0.4-0.4-0.3-0.2-0.4-0.5-0.8-1-0.8-2.6 0-1.5 0.8-2.6 0.8-1.1 2.3-1.7 1.4-0.7 3.4-0.7 0.4 0 0.8 0.1 0.4 0 0.9 0.1 0.4 0 0.8 0.1 0.4 0.1 0.8 0.2 0.4 0.1 0.8 0.3 0.4 0.1 0.7 0.3 0.4 0.2 0.8 0.4 0.3 0.1 0.7 0.4l-1.4 2.8q-0.3-0.2-0.6-0.3-0.4-0.2-0.7-0.4-0.4-0.1-0.7-0.3-0.4-0.1-0.7-0.2z"/><path class="a" d="m136.5 183.3h12.8v2.9h-9.5v4.2h8.5v2.9h-8.5v4.3h9.8v2.9h-13.1z"/><path fill-rule="evenodd" class="a" d="m166.6 186.5q-1.4-0.5-2.5-0.5-1.1 0-1.8 0.5-0.7 0.4-0.7 1.2 0 0.7 0.4 1.2 0.2 0.1 0.3 0.2 0.2 0.1 0.3 0.2 0.2 0.1 0.3 0.2 0.2 0.1 0.4 0.2 0.7 0.3 2 0.7 1.7 0.5 2.9 1 0.2 0.1 0.5 0.3 0.3 0.1 0.5 0.3 0.3 0.2 0.5 0.4 0.2 0.3 0.4 0.5 0.8 1 0.8 2.7 0 1.5-0.9 2.7-0.8 1.2-2.3 1.8-1.5 0.6-3.5 0.6-2 0-4-0.7-1.9-0.8-3.3-2l1.4-2.8q0.3 0.3 0.6 0.5 0.4 0.3 0.8 0.5 0.3 0.3 0.7 0.5 0.4 0.2 0.8 0.3 1.7 0.7 3.1 0.7 1.4 0 2.2-0.5 0.1-0.1 0.3-0.3 0.1-0.1 0.3-0.3 0.1-0.2 0.1-0.4 0.1-0.2 0.1-0.4 0-0.2-0.1-0.4 0-0.1-0.1-0.3 0-0.1-0.1-0.3-0.1-0.1-0.2-0.3-0.5-0.4-1.3-0.7-0.7-0.3-2-0.7-1.8-0.5-2.9-1-1.1-0.5-1.9-1.5-0.8-1-0.8-2.6 0-1.5 0.8-2.6 0.8-1.1 2.3-1.8 1.5-0.6 3.4-0.6 0.4 0 0.9 0.1 0.4 0 0.8 0 0.4 0.1 0.8 0.2 0.5 0.1 0.9 0.2 0.4 0.1 0.7 0.3 0.4 0.1 0.8 0.3 0.4 0.1 0.7 0.3 0.4 0.2 0.7 0.4l-1.3 2.9q-1.4-0.8-2.8-1.2zm24.5-3.2h3.8l5.8 11.1 5.7-11.1h3.8v17.2h-3v-12.3l-5.4 10.5h-2.2l-5.4-10.5v12.3h-3.1zm41.8 17.2l-1.6-3.6h-8.5l-1.5 3.6h-3.5l7.7-17.2h3.4l7.6 17.2zm-8.9-6.4h6.1l-3-7.3zm32-9.6q2 1.1 3.2 3 1.2 2 1.2 4.5 0 2.5-1.2 4.4-0.3 0.5-0.7 1-0.3 0.4-0.7 0.8-0.5 0.4-0.9 0.7-0.5 0.3-1 0.6-2.1 1.1-4.7 1.1h-7.2v-17.2h7.3q2.6 0 4.7 1.1zm-1.8 12.5q1.3-0.8 2-2 0.8-1.3 0.7-3 0-1.6-0.7-2.9-0.7-1.4-2-2.1-1.4-0.7-3-0.7h-3.8v11.4h4q1.5 0 2.8-0.7zm14.6-13.6h12.7v2.9h-9.4v4.2h8.4v2.9h-8.4v4.3h9.7v2.9h-13zm23.8 14.4q0.5 0.5 0.5 1.2 0 0.8-0.5 1.3-0.5 0.5-1.3 0.5-0.1 0-0.3 0-0.2 0-0.3-0.1-0.2-0.1-0.3-0.2-0.1-0.1-0.3-0.2-0.4-0.5-0.4-1.3 0-0.7 0.4-1.2 0.5-0.5 1.2-0.5 0.8 0 1.3 0.5zm21.4-12.9q1.8 1.6 1.8 4.4 0 3-1.8 4.6-1.8 1.6-5.1 1.7h-3.8v5h-3.3v-17.2h7.1q3.3 0 5.1 1.5zm-2.4 6.9q1.1-0.8 1.1-2.4 0-1.5-1.1-2.3-1-0.8-2.9-0.8h-3.6v6.3h3.6q1.9 0 2.9-0.8zm23.4 8.8l-3-5.1q-0.2 0.1-0.7 0.1h-3.9v5h-3.3v-17.2h7.2q3.4 0 5.3 1.5 1.8 1.6 1.8 4.4 0 2-0.9 3.5-0.9 1.4-2.6 2.1l3.9 5.7zm-7.6-8h3.9q1.9 0 2.9-0.8 1-0.8 1-2.4 0-1.5-1-2.3-1-0.8-2.9-0.8h-3.9zm32.8-8.3q2.1 1.1 3.3 3.1 1.2 2.1 1.2 4.5 0 2.5-1.2 4.5-1.2 2-3.3 3.2-2.2 1.2-4.7 1.2-2.6 0-4.8-1.2-2.1-1.2-3.3-3.2-1.2-2-1.2-4.5 0-2.4 1.2-4.5 1.2-2 3.3-3.1 2.2-1.2 4.8-1.2 2.5 0 4.7 1.2zm-7.6 2.5q-0.4 0.2-0.7 0.5-0.3 0.2-0.6 0.4-0.2 0.3-0.5 0.6-0.2 0.3-0.4 0.6-0.2 0.4-0.4 0.7-0.1 0.4-0.2 0.8-0.1 0.4-0.2 0.7 0 0.4 0 0.8 0 0.4 0 0.8 0.1 0.4 0.2 0.8 0.1 0.3 0.2 0.7 0.2 0.4 0.4 0.7 0.8 1.3 2.2 2.1 0.3 0.2 0.7 0.4 0.3 0.1 0.7 0.2 0.4 0.1 0.7 0.2 0.4 0 0.8 0 0.4 0 0.8 0 0.3-0.1 0.7-0.2 0.4-0.1 0.7-0.2 0.4-0.2 0.7-0.4 0.3-0.2 0.7-0.4 0.3-0.2 0.5-0.5 0.3-0.3 0.5-0.6 0.3-0.3 0.4-0.6 0.2-0.3 0.4-0.7 0.1-0.4 0.2-0.7 0.1-0.4 0.2-0.8 0-0.4 0-0.8 0-0.8-0.2-1.5-0.1-0.8-0.5-1.4-0.4-0.7-1-1.2-0.5-0.6-1.2-1-0.3-0.2-0.7-0.3-0.3-0.2-0.7-0.2-0.4-0.1-0.7-0.2-0.4 0-0.8 0-1.6 0-2.9 0.7zm20.6-3.5h3.8l5.7 11.1 5.8-11.1h3.8v17.2h-3.1v-12.3l-5.4 10.6h-2.2l-5.4-10.6v12.3h-3zm28.8 0h3.4v17.3h-3.4zm21.3 3.1q-1.4-0.4-2.4-0.4-1.2 0-1.9 0.4-0.7 0.5-0.7 1.3 0 0.7 0.5 1.2 0.1 0.1 0.2 0.2 0.2 0.1 0.3 0.2 0.2 0.1 0.4 0.2 0.1 0.1 0.3 0.1 0.7 0.4 2 0.7 1.7 0.5 2.9 1.1 0.3 0.1 0.5 0.2 0.3 0.2 0.5 0.4 0.3 0.2 0.5 0.4 0.2 0.2 0.4 0.5 0.8 1 0.8 2.6 0 1.6-0.9 2.8-0.8 1.1-2.3 1.8-1.5 0.6-3.5 0.6-2 0-3.9-0.8-2-0.7-3.4-2l1.4-2.8q1.3 1.2 2.9 1.9 1.7 0.7 3.1 0.7 1.4 0 2.2-0.5 0.2-0.1 0.3-0.3 0.2-0.1 0.3-0.3 0.1-0.2 0.1-0.4 0.1-0.2 0.1-0.5 0-0.1 0-0.3-0.1-0.2-0.1-0.3-0.1-0.2-0.2-0.3-0.1-0.2-0.2-0.3-0.5-0.5-1.2-0.8-0.8-0.3-2.1-0.6-1.7-0.5-2.9-1-1.1-0.5-1.9-1.5-0.8-1-0.8-2.6 0-1.5 0.8-2.7 0.8-1.1 2.3-1.7 1.5-0.6 3.4-0.6 0.5 0 0.9 0 0.4 0.1 0.8 0.1 0.4 0.1 0.9 0.2 0.4 0.1 0.8 0.2 1.6 0.5 2.9 1.3l-1.3 2.9q-1.4-0.8-2.8-1.3zm13-3.1h12.7v2.8h-9.4v4.3h8.4v2.9h-8.4v4.3h9.7v2.9h-13zm30.1 3.2q-1.4-0.5-2.5-0.5-1.2 0-1.9 0.5-0.7 0.4-0.7 1.2 0 0.7 0.5 1.2 0.1 0.1 0.3 0.2 0.1 0.1 0.3 0.2 0.1 0.1 0.3 0.2 0.2 0.1 0.3 0.2 0.8 0.3 2 0.6 1.8 0.6 2.9 1.1 0.3 0.1 0.6 0.3 0.2 0.1 0.5 0.3 0.2 0.2 0.4 0.4 0.3 0.3 0.5 0.5 0.8 1 0.8 2.7 0 1.5-0.9 2.7-0.9 1.2-2.4 1.8-1.5 0.6-3.4 0.6-2.1 0-4-0.8-1.9-0.7-3.4-2l1.4-2.8q0.3 0.3 0.7 0.6 0.3 0.3 0.7 0.5 0.4 0.3 0.8 0.5 0.4 0.2 0.8 0.3 1.6 0.7 3 0.7 1.4 0 2.2-0.5 0.2-0.1 0.4-0.3 0.1-0.1 0.2-0.3 0.1-0.2 0.2-0.4 0-0.2 0-0.4 0-0.8-0.5-1.3-0.1-0.1-0.2-0.2-0.2-0.1-0.3-0.2-0.2-0.1-0.4-0.2-0.1-0.1-0.3-0.1-0.7-0.3-2-0.7-1.8-0.5-2.9-1-1.1-0.5-1.9-1.5-0.8-1-0.8-2.6 0-1.5 0.8-2.6 0.8-1.2 2.3-1.8 1.4-0.6 3.4-0.6 1.7 0 3.3 0.5 1.7 0.5 3 1.3l-1.4 2.9q-0.3-0.2-0.6-0.4-0.4-0.1-0.7-0.3-0.3-0.2-0.7-0.3-0.4-0.1-0.7-0.2zm40 14h-4l-5.4-7.4-2.8 3v4.4h-3.3v-17.2h3.3v8.6l7.9-8.6h3.9l-6.7 7.3zm8-17.3h12.8v2.9h-9.4v4.3h8.4v2.9h-8.4v4.3h9.7v2.9h-13.1zm34.2 1.5q1.8 1.6 1.8 4.4 0 2.9-1.8 4.6-1.8 1.6-5.1 1.6h-3.8v5.1h-3.3v-17.2h7.1q3.3 0 5.1 1.5zm-2.4 6.9q1-0.8 1-2.4 0-1.6-1-2.4-1-0.8-2.9-0.8h-3.6v6.4h3.6q1.9 0 2.9-0.8zm10.5-8.4h14.2v2.9h-5.4v14.3h-3.4v-14.3h-5.4zm23.9 14.4q0.5 0.5 0.5 1.2 0 0.8-0.5 1.3-0.4 0.5-1.2 0.5-0.2 0-0.3 0-0.2 0-0.3-0.1-0.2-0.1-0.3-0.2-0.2-0.1-0.3-0.2-0.5-0.5-0.5-1.3 0-0.7 0.5-1.2 0.1-0.1 0.3-0.2 0.1-0.1 0.3-0.2 0.1-0.1 0.3-0.1 0.1 0 0.3 0 0.8 0 1.2 0.5zm-376.7-196.8h1.9v130.5h-1.9z"/></g></svg>